<svg xmlns="http://www.w3.org/2000/svg" xmlns:xlink="http://www.w3.org/1999/xlink" viewBox="0,0,256,256" width="128px" height="128px" fill-rule="nonzero"><g fill="#fefefe" fill-rule="nonzero" stroke="none" stroke-width="1" stroke-linecap="butt" stroke-linejoin="miter" stroke-miterlimit="10" stroke-dasharray="" stroke-dashoffset="0" font-family="none" font-weight="none" font-size="none" text-anchor="none" style="mix-blend-mode: normal"><g transform="scale(2,2)"><path d="M56,11c-7.2,0 -13,5.8 -13,13c0,1.7 1.3,3 3,3c1.7,0 3,-1.3 3,-3c0,-3.9 3.1,-7 7,-7h16c3.9,0 7,3.1 7,7c0,1.7 1.3,3 3,3c1.7,0 3,-1.3 3,-3c0,-7.2 -5.8,-13 -13,-13zM24,31c-7.2,0 -13,5.8 -13,13v17c0,1.1 0.6,1.99961 1.5,2.59961c15.9,9.5 33.7,14.30078 51.5,14.30078c17.8,0 35.6,-4.80078 51.5,-14.30078c0.9,-0.6 1.5,-1.49961 1.5,-2.59961v-17c0,-7.2 -5.8,-13 -13,-13zM24,37h80c3.9,0 7,3.1 7,7v15.30078c-29.1,16.8 -64.9,16.8 -94,0v-15.30078c0,-3.9 3.1,-7 7,-7zM14,73c-1.7,0 -3,1.3 -3,3v28c0,7.2 5.8,13 13,13h80c7.2,0 13,-5.8 13,-13v-28c0,-1.7 -1.3,-3 -3,-3c-1.7,0 -3,1.3 -3,3v28c0,3.9 -3.1,7 -7,7h-80c-3.9,0 -7,-3.1 -7,-7v-28c0,-1.7 -1.3,-3 -3,-3z"></path></g></g></svg>