<?xml version="1.0" encoding="utf-8"?>
<!-- Generator: Adobe Illustrator 22.0.1, SVG Export Plug-In . SVG Version: 6.00 Build 0)  -->
<svg version="1.1" id="Layer_1" xmlns="http://www.w3.org/2000/svg" xmlns:xlink="http://www.w3.org/1999/xlink" x="0px" y="0px"
	 viewBox="0 0 128 128" style="enable-background:new 0 0 128 128;" xml:space="preserve">
<style type="text/css">
	.st0{opacity:0.8;}
	.st1{fill:none;stroke:#000000;stroke-width:6;stroke-linecap:round;stroke-linejoin:round;stroke-miterlimit:10;}
</style>
<g>
	<g>
		<path d="M104,117H24c-7.2,0-13-5.8-13-13V76c0-1.7,1.3-3,3-3s3,1.3,3,3v28c0,3.9,3.1,7,7,7h80c3.9,0,7-3.1,7-7V76c0-1.7,1.3-3,3-3
			s3,1.3,3,3v28C117,111.2,111.2,117,104,117z"/>
	</g>
	<g>
		<path d="M64,77.9c-17.8,0-35.6-4.8-51.5-14.3C11.6,63,11,62.1,11,61V44c0-7.2,5.8-13,13-13h80c7.2,0,13,5.8,13,13v17
			c0,1.1-0.6,2-1.5,2.6C99.6,73.1,81.8,77.9,64,77.9z M17,59.3c29.1,16.8,64.9,16.8,94,0V44c0-3.9-3.1-7-7-7H24c-3.9,0-7,3.1-7,7
			V59.3z"/>
	</g>
	<g>
		<path d="M82,27c-1.7,0-3-1.3-3-3c0-3.9-3.1-7-7-7H56c-3.9,0-7,3.1-7,7c0,1.7-1.3,3-3,3s-3-1.3-3-3c0-7.2,5.8-13,13-13h16
			c7.2,0,13,5.8,13,13C85,25.7,83.7,27,82,27z"/>
	</g>
</g>
</svg>