<?xml version="1.0" encoding="UTF-8"?>
<svg version="1.1" xmlns="http://www.w3.org/2000/svg" width="24" height="24">
<path d="M0 0 C6.6 0 13.2 0 20 0 C20 5.28 20 10.56 20 16 C13.4 16 6.8 16 0 16 C0 10.72 0 5.44 0 0 Z M3 2 C7.26672515 6.29289741 7.26672515 6.29289741 10.5625 5.9375 C13.4295783 4.96200805 13.4295783 4.96200805 17 2 C12.38 2 7.76 2 3 2 Z M2 5 C2 7.97 2 10.94 2 14 C7.28 14 12.56 14 18 14 C18 11.03 18 8.06 18 5 C17.2575 5.309375 16.515 5.61875 15.75 5.9375 C14.8425 6.288125 13.935 6.63875 13 7 C12.34 7.268125 11.68 7.53625 11 7.8125 C8.02533884 8.09137448 6.43219097 6.60012564 4 5 C3.34 5 2.68 5 2 5 Z " fill="#FFFFFF" transform="translate(2,4)"/>
</svg>
